<svg xmlns="http://www.w3.org/2000/svg" viewBox="0 0 99.43 24.82"><defs><style>.cls-1{opacity:0.5;}.cls-2,.cls-4{fill:#1dbc86;}.cls-2{fill-rule:evenodd;}.cls-3{isolation:isolate;}</style></defs><g id="Layer_2" data-name="Layer 2"><g id="Layer_1-2" data-name="Layer 1"><g class="cls-1"><path class="cls-2" d="M2.66,14.18,13.3,3.55V14.18Z"/></g><path class="cls-2" d="M5.32,24.82,23.05,7.09V24.82Z"/><path class="cls-2" d="M0,7.09,7.09,0V7.09Z"/><g class="cls-3"><g class="cls-3"><path class="cls-4" d="M41.15.25A7.66,7.66,0,0,1,46.78,2.5,7.51,7.51,0,0,1,49,8.07a7.53,7.53,0,0,1-2.26,5.56,7.63,7.63,0,0,1-5.63,2.26H36.29v8.16H32.38V.25Zm0,12A3.79,3.79,0,0,0,44,11.05a4.12,4.12,0,0,0,1.12-3A4.11,4.11,0,0,0,44,5.1a3.79,3.79,0,0,0-2.86-1.17H36.29v8.29Z"/><path class="cls-4" d="M64.48,7.05h3.67v17H64.48V21.61a6.91,6.91,0,0,1-6,2.89,8,8,0,0,1-6-2.61,8.84,8.84,0,0,1-2.48-6.34A8.83,8.83,0,0,1,52.54,9.2a8,8,0,0,1,6-2.59,6.91,6.91,0,0,1,6,2.86Zm-9.22,12.4a5.57,5.57,0,0,0,7.69,0,5.31,5.31,0,0,0,1.53-3.9A5.31,5.31,0,0,0,63,11.66a5.54,5.54,0,0,0-7.69,0,5.31,5.31,0,0,0-1.53,3.89A5.31,5.31,0,0,0,55.26,19.45Z"/><path class="cls-4" d="M75.63,11.72a1.48,1.48,0,0,0,.94,1.33,14.2,14.2,0,0,0,2.26.89l2.7.83a4.7,4.7,0,0,1,2.32,1.58,4.54,4.54,0,0,1,.92,2.91,4.5,4.5,0,0,1-1.88,3.84,7.78,7.78,0,0,1-4.75,1.4,8.42,8.42,0,0,1-4.31-1.06,6.13,6.13,0,0,1-2.62-2.92l3.16-1.84a3.61,3.61,0,0,0,3.77,2.45c1.93,0,2.9-.63,2.9-1.9a1.52,1.52,0,0,0-.94-1.33A12.34,12.34,0,0,0,77.85,17l-2.71-.83a4.84,4.84,0,0,1-2.32-1.53,4.21,4.21,0,0,1-.93-2.81A4.59,4.59,0,0,1,73.67,8a6.89,6.89,0,0,1,4.44-1.43,7.42,7.42,0,0,1,3.76.94,6.34,6.34,0,0,1,2.53,2.6l-3.09,1.73a3.62,3.62,0,0,0-5-1.48A1.47,1.47,0,0,0,75.63,11.72Z"/><path class="cls-4" d="M90.28,11.72a1.5,1.5,0,0,0,.94,1.33,14.34,14.34,0,0,0,2.27.89l2.7.83a4.72,4.72,0,0,1,2.31,1.58,4.49,4.49,0,0,1,.93,2.91,4.51,4.51,0,0,1-1.89,3.84,7.77,7.77,0,0,1-4.74,1.4,8.43,8.43,0,0,1-4.32-1.06,6.23,6.23,0,0,1-2.62-2.92L89,18.68a3.62,3.62,0,0,0,3.78,2.45c1.92,0,2.89-.63,2.89-1.9a1.5,1.5,0,0,0-.94-1.33A12,12,0,0,0,92.5,17l-2.7-.83a4.75,4.75,0,0,1-2.32-1.53,4.17,4.17,0,0,1-.94-2.81A4.59,4.59,0,0,1,88.33,8a6.89,6.89,0,0,1,4.43-1.43,7.42,7.42,0,0,1,3.76.94,6.34,6.34,0,0,1,2.53,2.6L96,11.88a3.21,3.21,0,0,0-3.2-1.94A3.14,3.14,0,0,0,91,10.4,1.46,1.46,0,0,0,90.28,11.72Z"/></g></g></g></g></svg>